HIERARCHY
ROOT mixamorig:Hips
{
	OFFSET 0.000000 201.639420 0.000000
	CHANNELS 6 Xposition Yposition Zposition Xrotation Yrotation Zrotation
	JOINT mixamorig:Spine
	{
		OFFSET 0.006200 19.524994 -2.481800
		CHANNELS 3 Xrotation Yrotation Zrotation
		JOINT mixamorig:Spine1
		{
			OFFSET -0.000900 22.835007 -2.825400
			CHANNELS 3 Xrotation Yrotation Zrotation
			JOINT mixamorig:Spine2
			{
				OFFSET -0.020600 26.552490 -3.193300
				CHANNELS 3 Xrotation Yrotation Zrotation
				JOINT mixamorig:Neck
				{
					OFFSET -0.060000 30.701813 1.352200
					CHANNELS 3 Xrotation Yrotation Zrotation
					JOINT mixamorig:Head
					{
						OFFSET -0.087200 22.547607 3.670900
						CHANNELS 3 Xrotation Yrotation Zrotation
						JOINT mixamorig:HeadTop_End
						{
							OFFSET -0.830600 40.355194 7.893500
							CHANNELS 3 Xrotation Yrotation Zrotation
							End Site
							{
								OFFSET 0.000000 30.592346 0.000000
							}
						}
						JOINT mixamorig:RightEye
						{
							OFFSET -6.302100 18.118591 16.197100
							CHANNELS 3 Xrotation Yrotation Zrotation
							End Site
							{
								OFFSET 0.000000 30.592346 0.000000
							}
						}
						JOINT mixamorig:LeftEye
						{
							OFFSET 6.741500 18.382690 16.401899
							CHANNELS 3 Xrotation Yrotation Zrotation
							End Site
							{
								OFFSET 0.000000 30.592346 0.000000
							}
						}
					}
				}
				JOINT mixamorig:LeftShoulder
				{
					OFFSET 11.924900 18.230499 1.425400
					CHANNELS 3 Xrotation Yrotation Zrotation
					JOINT mixamorig:LeftArm
					{
						OFFSET 25.435989 -0.697632 -5.229300
						CHANNELS 3 Xrotation Yrotation Zrotation
						JOINT mixamorig:LeftForeArm
						{
							OFFSET 54.684776 0.000000 0.000000
							CHANNELS 3 Xrotation Yrotation Zrotation
							JOINT mixamorig:LeftHand
							{
								OFFSET 55.098175 0.000000 0.000000
								CHANNELS 3 Xrotation Yrotation Zrotation
								JOINT mixamorig:LeftHandMiddle1
								{
									OFFSET 23.369751 0.000000 0.000000
									CHANNELS 3 Xrotation Yrotation Zrotation
									JOINT mixamorig:LeftHandMiddle2
									{
										OFFSET 6.378677 0.000000 0.000000
										CHANNELS 3 Xrotation Yrotation Zrotation
										JOINT mixamorig:LeftHandMiddle3
										{
											OFFSET 6.148331 0.000000 0.000000
											CHANNELS 3 Xrotation Yrotation Zrotation
											JOINT mixamorig:LeftHandMiddle4
											{
												OFFSET 6.582504 0.000000 0.000000
												CHANNELS 3 Xrotation Yrotation Zrotation
												End Site
												{
													OFFSET -1.168900 6.395691 1.028606
												}
											}
										}
									}
								}
								JOINT mixamorig:LeftHandThumb1
								{
									OFFSET 7.235672 -3.848206 5.434273
									CHANNELS 3 Xrotation Yrotation Zrotation
									JOINT mixamorig:LeftHandThumb2
									{
										OFFSET 6.568451 -3.792297 3.792300
										CHANNELS 3 Xrotation Yrotation Zrotation
										JOINT mixamorig:LeftHandThumb3
										{
											OFFSET 6.063080 -3.500519 3.500518
											CHANNELS 3 Xrotation Yrotation Zrotation
											JOINT mixamorig:LeftHandThumb4
											{
												OFFSET 4.793182 -2.767334 2.767349
												CHANNELS 3 Xrotation Yrotation Zrotation
												End Site
												{
													OFFSET 0.101639 6.054260 1.275483
												}
											}
										}
									}
								}
								JOINT mixamorig:LeftHandIndex1
								{
									OFFSET 23.101074 -0.309540 4.992809
									CHANNELS 3 Xrotation Yrotation Zrotation
									JOINT mixamorig:LeftHandIndex2
									{
										OFFSET 6.226883 0.000000 0.000000
										CHANNELS 3 Xrotation Yrotation Zrotation
										JOINT mixamorig:LeftHandIndex3
										{
											OFFSET 6.094330 0.000000 0.000000
											CHANNELS 3 Xrotation Yrotation Zrotation
											JOINT mixamorig:LeftHandIndex4
											{
												OFFSET 5.482605 0.000000 0.000000
												CHANNELS 3 Xrotation Yrotation Zrotation
												End Site
												{
													OFFSET -1.427902 5.233032 0.797164
												}
											}
										}
									}
								}
								JOINT mixamorig:LeftHandRing1
								{
									OFFSET 22.299240 0.021149 -3.964172
									CHANNELS 3 Xrotation Yrotation Zrotation
									JOINT mixamorig:LeftHandRing2
									{
										OFFSET 6.321869 0.000000 0.000000
										CHANNELS 3 Xrotation Yrotation Zrotation
										JOINT mixamorig:LeftHandRing3
										{
											OFFSET 5.899796 0.000000 0.000000
											CHANNELS 3 Xrotation Yrotation Zrotation
											JOINT mixamorig:LeftHandRing4
											{
												OFFSET 6.517899 0.000000 0.000000
												CHANNELS 3 Xrotation Yrotation Zrotation
												End Site
												{
													OFFSET -1.637299 6.232208 0.980890
												}
											}
										}
									}
								}
								JOINT mixamorig:LeftHandPinky1
								{
									OFFSET 20.463791 -0.302338 -8.562233
									CHANNELS 3 Xrotation Yrotation Zrotation
									JOINT mixamorig:LeftHandPinky2
									{
										OFFSET 6.908646 0.000000 0.000000
										CHANNELS 3 Xrotation Yrotation Zrotation
										JOINT mixamorig:LeftHandPinky3
										{
											OFFSET 4.622849 0.000000 0.000000
											CHANNELS 3 Xrotation Yrotation Zrotation
											JOINT mixamorig:LeftHandPinky4
											{
												OFFSET 5.216080 0.000000 0.000000
												CHANNELS 3 Xrotation Yrotation Zrotation
												End Site
												{
													OFFSET -0.606308 5.116241 0.814926
												}
											}
										}
									}
								}
							}
						}
					}
				}
				JOINT mixamorig:RightShoulder
				{
					OFFSET -12.001300 18.284088 1.348900
					CHANNELS 3 Xrotation Yrotation Zrotation
					JOINT mixamorig:RightArm
					{
						OFFSET -25.308500 -0.751312 -5.164599
						CHANNELS 3 Xrotation Yrotation Zrotation
						JOINT mixamorig:RightForeArm
						{
							OFFSET -54.684429 0.000000 0.000000
							CHANNELS 3 Xrotation Yrotation Zrotation
							JOINT mixamorig:RightHand
							{
								OFFSET -55.150291 0.000000 0.000000
								CHANNELS 3 Xrotation Yrotation Zrotation
								JOINT mixamorig:RightHandMiddle1
								{
									OFFSET -23.317566 0.000000 0.000000
									CHANNELS 3 Xrotation Yrotation Zrotation
									JOINT mixamorig:RightHandMiddle2
									{
										OFFSET -6.378403 0.000000 0.000000
										CHANNELS 3 Xrotation Yrotation Zrotation
										JOINT mixamorig:RightHandMiddle3
										{
											OFFSET -6.148193 0.000000 0.000000
											CHANNELS 3 Xrotation Yrotation Zrotation
											JOINT mixamorig:RightHandMiddle4
											{
												OFFSET -6.583389 0.000000 0.000000
												CHANNELS 3 Xrotation Yrotation Zrotation
												End Site
												{
													OFFSET 1.171692 6.395905 1.029786
												}
											}
										}
									}
								}
								JOINT mixamorig:RightHandThumb1
								{
									OFFSET -7.190521 -3.860474 5.435846
									CHANNELS 3 Xrotation Yrotation Zrotation
									JOINT mixamorig:RightHandThumb2
									{
										OFFSET -6.567429 -3.791718 3.791708
										CHANNELS 3 Xrotation Yrotation Zrotation
										JOINT mixamorig:RightHandThumb3
										{
											OFFSET -6.062469 -3.500153 3.500166
											CHANNELS 3 Xrotation Yrotation Zrotation
											JOINT mixamorig:RightHandThumb4
											{
												OFFSET -4.792618 -2.767029 2.767022
												CHANNELS 3 Xrotation Yrotation Zrotation
												End Site
												{
													OFFSET -0.100327 6.053253 1.276754
												}
											}
										}
									}
								}
								JOINT mixamorig:RightHandIndex1
								{
									OFFSET -23.048981 -0.310791 4.992554
									CHANNELS 3 Xrotation Yrotation Zrotation
									JOINT mixamorig:RightHandIndex2
									{
										OFFSET -6.227539 0.000000 0.000000
										CHANNELS 3 Xrotation Yrotation Zrotation
										JOINT mixamorig:RightHandIndex3
										{
											OFFSET -6.095047 0.000000 0.000000
											CHANNELS 3 Xrotation Yrotation Zrotation
											JOINT mixamorig:RightHandIndex4
											{
												OFFSET -5.484772 0.000000 0.000000
												CHANNELS 3 Xrotation Yrotation Zrotation
												End Site
												{
													OFFSET 1.420593 5.237305 0.797056
												}
											}
										}
									}
								}
								JOINT mixamorig:RightHandRing1
								{
									OFFSET -22.246323 0.020569 -3.963762
									CHANNELS 3 Xrotation Yrotation Zrotation
									JOINT mixamorig:RightHandRing2
									{
										OFFSET -6.322128 0.000000 0.000000
										CHANNELS 3 Xrotation Yrotation Zrotation
										JOINT mixamorig:RightHandRing3
										{
											OFFSET -5.900024 0.000000 0.000000
											CHANNELS 3 Xrotation Yrotation Zrotation
											JOINT mixamorig:RightHandRing4
											{
												OFFSET -6.518356 0.000000 0.000000
												CHANNELS 3 Xrotation Yrotation Zrotation
												End Site
												{
													OFFSET 1.636398 6.232697 0.982186
												}
											}
										}
									}
								}
								JOINT mixamorig:RightHandPinky1
								{
									OFFSET -20.411011 -0.303314 -8.561701
									CHANNELS 3 Xrotation Yrotation Zrotation
									JOINT mixamorig:RightHandPinky2
									{
										OFFSET -6.907349 0.000000 0.000000
										CHANNELS 3 Xrotation Yrotation Zrotation
										JOINT mixamorig:RightHandPinky3
										{
											OFFSET -4.623840 0.000000 0.000000
											CHANNELS 3 Xrotation Yrotation Zrotation
											JOINT mixamorig:RightHandPinky4
											{
												OFFSET -5.218353 0.000000 0.000000
												CHANNELS 3 Xrotation Yrotation Zrotation
												End Site
												{
													OFFSET 0.602097 5.118835 0.816273
												}
											}
										}
									}
								}
							}
						}
					}
				}
			}
		}
	}
	JOINT mixamorig:LeftUpLeg
	{
		OFFSET 18.168400 -13.561905 -0.039000
		CHANNELS 3 Xrotation Yrotation Zrotation
		JOINT mixamorig:LeftLeg
		{
			OFFSET 0.577358 -80.825211 -3.695000
			CHANNELS 3 Xrotation Yrotation Zrotation
			JOINT mixamorig:LeftFoot
			{
				OFFSET -0.577356 -83.370262 -6.520700
				CHANNELS 3 Xrotation Yrotation Zrotation
				JOINT mixamorig:LeftToeBase
				{
					OFFSET 0.750401 -20.798306 25.135401
					CHANNELS 3 Xrotation Yrotation Zrotation
					JOINT mixamorig:LeftToe_End
					{
						OFFSET -0.000500 0.001200 19.917799
						CHANNELS 3 Xrotation Yrotation Zrotation
						End Site
						{
							OFFSET 0.000000 19.917805 0.000000
						}
					}
				}
			}
		}
	}
	JOINT mixamorig:RightUpLeg
	{
		OFFSET -18.162500 -13.585098 -0.041000
		CHANNELS 3 Xrotation Yrotation Zrotation
		JOINT mixamorig:RightLeg
		{
			OFFSET -0.595024 -80.945297 -3.631900
			CHANNELS 3 Xrotation Yrotation Zrotation
			JOINT mixamorig:RightFoot
			{
				OFFSET 0.595024 -83.218193 -6.561200
				CHANNELS 3 Xrotation Yrotation Zrotation
				JOINT mixamorig:RightToeBase
				{
					OFFSET -0.753601 -20.807106 25.115000
					CHANNELS 3 Xrotation Yrotation Zrotation
					JOINT mixamorig:RightToe_End
					{
						OFFSET 0.000299 0.001700 19.918200
						CHANNELS 3 Xrotation Yrotation Zrotation
						End Site
						{
							OFFSET 0.000000 19.918203 0.000000
						}
					}
				}
			}
		}
	}
}
MOTION
Frames: 4
Frame Time: 0.033333
-0.253197 198.644150 0.990654 -2.453834 -8.401383 -1.637443 2.434681 2.452423 2.784631 0.205626 0.337204 -1.683445 0.214786 0.328718 -1.683991 3.116280 -0.804271 2.327669 11.965142 -0.693034 0.065031 -0.000001 0.000000 0.000000 -0.000001 0.000000 0.000000 -0.000001 0.000000 0.000000 -0.330937 5.900065 1.561850 16.528247 -8.922890 6.599326 -0.000006 -7.696113 -0.000002 -2.511581 19.619438 -11.091116 0.121080 1.288189 -10.738969 0.131991 1.344412 -11.213745 0.124589 1.306573 -10.894146 -0.000004 -0.000000 -0.000001 -2.107831 4.876212 12.292420 4.685175 17.127439 1.425235 -0.579466 1.574995 2.538714 -0.000001 -0.000000 0.000003 0.055492 0.874225 -7.264146 0.032114 0.665616 -5.524337 0.023974 0.575388 -4.773597 -0.000000 0.000000 -0.000003 0.295876 2.000511 -16.824393 0.345999 2.159235 -18.205441 0.351739 2.176593 -18.357206 0.000001 0.000000 -0.000000 2.553140 6.731402 -26.341752 0.619307 -1.215508 -24.775724 0.619817 2.859837 -24.452851 0.000000 -0.000001 0.000000 1.158608 10.694873 0.734645 -0.408550 2.056252 -1.347424 -0.000000 1.413026 0.000000 0.260183 -3.601003 9.031916 0.300948 -2.027307 16.885671 0.422061 -2.389928 20.027559 0.333516 -2.131579 17.783183 0.000002 -0.000000 0.000001 -2.032679 -12.088981 -7.927927 5.749302 -21.267915 -1.054436 -1.273756 0.137313 -2.094873 0.000001 -0.000001 -0.000001 0.322129 -2.095772 17.474479 0.276360 -1.944508 16.176156 0.146963 -1.424851 11.776961 -0.000000 -0.000000 -0.000005 0.431359 -2.415263 20.249402 0.669816 -2.982460 25.310253 0.620893 -2.876859 24.353077 -0.000000 0.000001 0.000000 0.830783 -3.300929 28.246638 1.000359 -3.598244 31.064438 0.912342 -3.448174 29.632130 -0.000001 -0.000000 0.000001 -8.155708 17.158060 8.695466 20.349121 10.198646 -0.621896 -8.830250 9.438649 -5.496260 0.000000 0.000000 -0.000000 -0.000000 0.000000 -0.000000 -8.170068 -2.048935 -2.211924 19.557092 -9.132223 -1.382807 -7.606612 -7.019646 3.547408 -0.017905 0.000004 0.000000 0.000000 0.000001 -0.000000 
0.136841 199.172287 1.026435 -1.989705 -8.188808 -1.426292 1.970897 2.074864 2.888950 0.088673 0.285892 -1.793899 0.096882 0.279009 -1.794572 3.146037 -0.800462 2.367719 11.950824 -0.634012 0.131346 0.000002 -0.000000 -0.000000 0.000002 -0.000000 -0.000000 0.000002 -0.000000 -0.000000 -0.296567 5.570441 1.536821 16.630710 -8.452637 6.285347 0.000010 -7.100332 0.000001 -2.666262 19.284342 -11.351920 0.136449 1.366700 -11.402244 0.143148 1.399495 -11.679757 0.132400 1.346471 -11.231173 -0.000000 -0.000001 -0.000001 -2.107830 4.876209 12.292420 4.685176 17.127437 1.425236 -0.579468 1.574997 2.538714 0.000001 -0.000001 -0.000001 0.068561 0.971235 -8.075479 0.038835 0.731780 -6.075516 0.028195 0.623805 -5.176339 0.000001 0.000001 -0.000001 0.319664 2.077511 -17.493011 0.358699 2.197458 -18.539664 0.359959 2.201199 -18.572495 -0.000001 -0.000000 0.000001 2.651605 6.793528 -27.177895 0.625683 -1.201727 -24.901401 0.624426 2.869930 -24.545014 -0.000001 -0.000003 0.000002 1.200981 11.258463 0.768188 -0.021284 1.821954 -1.770179 0.000001 1.182480 -0.000000 0.772371 -0.800247 10.285097 0.293274 -2.001875 16.667422 0.414189 -2.368243 19.837950 0.324724 -2.103995 17.545327 -0.000001 -0.000001 0.000003 -2.032679 -12.088983 -7.927926 5.749301 -21.267916 -1.054438 -1.273756 0.137313 -2.094874 -0.000001 0.000002 -0.000002 0.312956 -2.066430 17.221888 0.269506 -1.920749 15.973010 0.140167 -1.391881 11.500567 0.000001 0.000000 -0.000004 0.421522 -2.388459 20.014732 0.660878 -2.963522 25.138009 0.610561 -2.853939 24.146296 0.000000 0.000001 -0.000002 0.813288 -3.268208 27.941283 0.991736 -3.583918 30.926789 0.901105 -3.428382 29.444788 -0.000001 -0.000001 -0.000000 -7.530638 16.412192 7.407241 18.423018 10.067350 0.209347 -7.997392 12.152225 -5.441382 0.000000 0.000004 0.000002 -0.000000 -0.000001 0.000000 -7.559321 -2.790249 -2.878322 17.404191 -9.254936 -0.902706 -6.522232 -6.424568 3.642503 -0.015212 0.000008 -0.000001 -0.000000 -0.000002 -0.000000 
0.835438 199.492538 0.974730 -1.251822 -7.923619 -1.127821 1.496746 1.541759 3.049808 -0.162059 0.213794 -1.840512 -0.155807 0.209685 -1.841542 3.101092 -0.785965 2.418159 12.148333 -0.412144 -0.259163 0.000000 0.000000 -0.000000 0.000000 0.000000 -0.000000 0.000000 0.000000 -0.000000 -0.260977 5.210311 1.532961 17.068211 -7.933239 5.518385 -0.000001 -6.755615 0.000001 -2.490835 19.471015 -12.228625 0.152161 1.442411 -12.043357 0.157330 1.466389 -12.246729 0.142756 1.397628 -11.663903 -0.000001 0.000001 0.000001 -2.107831 4.876212 12.292422 4.685174 17.127435 1.425237 -0.579470 1.574996 2.538713 0.000000 -0.000002 0.000000 0.081397 1.057746 -8.800411 0.047183 0.806328 -6.697187 0.033355 0.678374 -5.630583 -0.000002 0.000001 -0.000002 0.345775 2.158572 -18.199589 0.378387 2.255224 -19.046041 0.374234 2.243205 -18.940629 -0.000001 0.000002 0.000003 2.763747 6.861877 -28.121197 0.645520 -1.159392 -25.288395 0.638705 2.900977 -24.828803 -0.000001 0.000001 0.000001 1.289526 12.489128 0.879050 1.635574 0.861664 -3.040412 0.000001 1.085437 -0.000002 2.733608 2.069603 11.262800 0.286529 -1.979208 16.473132 0.406146 -2.345854 19.642442 0.315499 -2.074604 17.292208 0.000000 -0.000000 0.000001 -2.032676 -12.088982 -7.927927 5.749298 -21.267916 -1.054437 -1.273754 0.137308 -2.094874 0.000002 0.000002 -0.000001 0.305496 -2.042224 17.013779 0.262645 -1.896637 15.767097 0.133450 -1.358423 11.220380 0.000002 -0.000001 -0.000002 0.412165 -2.362620 19.788836 0.651035 -2.942467 24.946829 0.598736 -2.827478 23.907921 -0.000000 -0.000001 0.000004 0.795731 -3.234943 27.631749 0.980944 -3.565881 30.753709 0.887070 -3.403445 29.209215 0.000001 0.000001 -0.000001 -7.556149 15.668498 6.218795 17.301924 9.960505 0.864000 -7.541513 17.198536 -5.285980 -0.000000 0.000007 0.000001 -0.000000 0.000002 -0.000000 -7.604709 -3.648965 -3.758029 15.855642 -9.352479 -0.337190 -5.622437 -5.861393 3.918079 -0.011602 0.000006 -0.000001 -0.000000 0.000000 0.000000 
1.807365 199.727661 0.720755 -0.621979 -7.866828 -0.916274 1.542580 1.141039 3.325762 -0.473632 0.160225 -1.807352 -0.469077 0.158007 -1.808748 2.803693 -0.797454 2.565217 12.474722 -0.077955 -1.101259 0.000000 -0.000000 0.000000 0.000000 -0.000000 0.000000 0.000000 -0.000000 0.000000 -0.235235 4.945854 1.535200 18.184081 -7.560132 4.724056 -0.000004 -7.094007 -0.000002 -1.418820 20.513768 -14.686896 0.167745 1.513623 -12.647828 0.168977 1.519027 -12.693732 0.150864 1.436296 -11.991522 -0.000002 -0.000002 -0.000002 -2.107833 4.876211 12.292421 4.685175 17.127439 1.425237 -0.579468 1.574993 2.538715 -0.000001 -0.000000 0.000002 0.095986 1.148046 -9.558662 0.054089 0.863099 -7.171162 0.037582 0.719945 -5.976914 0.000002 0.000000 -0.000000 0.368351 2.226015 -18.789791 0.393476 2.298457 -19.426108 0.384804 2.273733 -19.208720 -0.000001 0.000001 0.000001 2.850010 6.912741 -28.840563 0.659385 -1.130230 -25.555634 0.648665 2.922359 -25.024828 0.000000 -0.000001 -0.000000 1.406598 14.274888 1.119067 4.212665 -0.803335 -4.696275 -0.000000 1.167483 -0.000000 6.261162 3.651271 11.572177 0.284031 -1.970779 16.400888 0.402898 -2.336740 19.562937 0.311721 -2.062438 17.187546 0.000004 -0.000001 0.000001 -2.032676 -12.088980 -7.927925 5.749299 -21.267916 -1.054437 -1.273756 0.137311 -2.094873 0.000001 -0.000001 0.000000 0.302868 -2.033630 16.939948 0.259944 -1.887040 15.685195 0.130817 -1.345108 11.108948 0.000002 -0.000001 -0.000001 0.408556 -2.352585 19.701228 0.646844 -2.933467 24.865135 0.593619 -2.815898 23.803844 -0.000001 -0.000001 0.000002 0.788790 -3.221691 27.508635 0.976003 -3.557568 30.674110 0.880651 -3.391959 29.100916 0.000001 -0.000001 0.000001 -7.693809 15.698106 5.810458 16.603544 9.842273 0.542440 -7.252841 23.646267 -4.717300 0.000000 -0.000019 0.000000 0.000000 -0.000002 -0.000000 -7.858583 -4.275902 -4.407470 14.655885 -9.386187 -0.029686 -4.755607 -5.515651 4.119906 -0.007302 0.000010 -0.000000 -0.000000 -0.000002 -0.000000 
